<svg width="174" height="158" viewBox="0 0 174 158" fill="none" xmlns="http://www.w3.org/2000/svg">
<path fill-rule="evenodd" clip-rule="evenodd" d="M0 9.5H63.3357C63.7893 6.26247 64.4495 3.09121 65.3027 0H1.04521C0.590262 3.13378 0.240623 6.30168 0 9.5ZM137.607 95C99.7487 95 68.4421 66.9504 63.3357 30.5H0C5.36495 101.81 64.9238 158 137.607 158C150.203 158 162.406 156.312 174 153.151V85.5939C163.222 91.5866 150.813 95 137.607 95ZM137.5 72C108.505 72 85 48.4949 85 19.5C85 12.6093 86.3275 6.02874 88.7407 0H185L184.707 42.5C176.181 59.9671 158.246 72 137.5 72Z" fill="#D9D9D9" fill-opacity="0.5"/>
</svg>
